<svg width="144" height="144" viewBox="0 0 144 144" fill="none" xmlns="http://www.w3.org/2000/svg">
<path fill-rule="evenodd" clip-rule="evenodd" d="M85.2949 8.45611C83.5013 8.83314 81.0553 9.99196 79.4474 11.2264C76.8382 13.2293 74.9087 16.6055 74.4169 20.0279C74.0316 22.7094 74.5604 25.5181 75.935 28.0925C76.4727 29.0994 77.3119 30.1506 78.5078 31.315C79.8462 32.6179 80.6894 33.234 81.9368 33.8203C82.8467 34.2477 84.1826 34.7432 84.9056 34.921C86.5933 35.3363 90.0729 35.3363 91.7606 34.921C92.4836 34.7432 93.8195 34.2477 94.7293 33.8203C95.9768 33.234 96.82 32.6179 98.1583 31.315C100.794 28.7488 102.065 26.1331 102.364 22.6577C102.53 20.7331 102.067 18.1492 101.226 16.3089C100.481 14.6781 98.9305 12.6313 97.5443 11.4484C96.0637 10.1852 93.2921 8.85256 91.3106 8.4512C89.4176 8.06799 87.1328 8.06969 85.2949 8.45611ZM64.1165 34.4274C60.4903 34.8679 56.2522 36.2184 53.3744 37.8512C51.1498 39.1131 48.4455 41.2023 46.8769 42.871C45.3396 44.5061 43.1872 47.5112 42.2072 49.3903C39.0268 55.4887 37.0966 64.8473 38.3221 68.2287C39.1855 70.6119 41.4406 72.54 43.9552 73.0453C44.9541 73.246 45.4272 73.2298 46.5765 72.9552C48.8586 72.4102 50.6891 70.9428 51.8477 68.7298C52.1598 68.1333 52.6988 66.3671 53.0453 64.805C53.3918 63.2429 54.0237 60.957 54.4494 59.7254C56.6188 53.4499 59.766 49.9994 64.238 48.9933L65.4337 48.724L65.2866 50.7908C64.931 55.7816 64.1245 61.5247 63.2749 65.1122C62.6833 67.6109 61.629 70.9283 60.7274 73.1281C57.807 80.2542 53.4383 84.9135 48.5128 86.1553C46.8096 86.5847 43.5343 86.5778 42.0006 86.1414C37.7832 84.9416 34.3079 81.6979 32.0099 76.8166C31.1056 74.8961 29.8715 73.6286 28.1529 72.8551C27.1128 72.3869 26.598 72.2949 25.0325 72.2979C23.5124 72.3009 22.9762 72.3937 22.1985 72.7889C19.9192 73.9464 18.1589 76.3326 17.8568 78.674C17.7725 79.3275 17.8175 80.3157 17.9611 80.9645C18.1003 81.5922 18.6931 83.0768 19.2789 84.2638C21.7977 89.3679 25.6593 93.8072 30.1461 96.7566C32.1806 98.0937 35.7869 99.6761 38.0814 100.238C43.2754 101.511 48.0463 101.51 53.0435 100.235C55.2644 99.6684 58.9276 98.0845 60.6941 96.9272C62.6498 95.6458 65.2806 93.3658 66.7513 91.6777C68.6472 89.5016 70.3928 86.9613 71.7607 84.3874C72.3652 83.2497 73.1478 82.0531 73.5 81.7277C75.6077 79.7811 78.4502 81.1438 80.3466 85.0099C84.1872 92.8401 86.2867 107.313 86.0882 124.59C86.0196 130.561 86.0342 130.817 86.4938 131.78C87.1687 133.193 88.6145 134.624 90.0662 135.314C91.1609 135.834 91.5629 135.905 93.4059 135.905C95.2507 135.905 95.6506 135.834 96.7498 135.312C98.1877 134.628 99.442 133.383 100.065 132.02C100.792 130.429 100.966 127.36 100.837 118.399C100.71 109.603 100.401 105.228 99.4585 98.8919C98.2521 90.7793 96.4172 84.1773 93.9463 79.0591C93.4029 77.9338 92.7551 76.3815 92.5065 75.6097C91.9326 73.828 91.7372 71.012 92.0519 69.062C92.3003 67.524 93.0224 65.0535 93.3793 64.5204C93.5418 64.2775 93.8146 64.305 94.9856 64.6822C97.1607 65.3827 99.433 65.7559 102.449 65.9077C108.585 66.2162 114.295 64.8759 118.532 62.1327C123.042 59.2128 126.269 54.5436 126.269 50.9392C126.269 48.8741 125.611 47.3966 123.976 45.7954C122.962 44.8014 122.304 44.3605 121.307 44.0046C118.619 43.046 115.431 43.7672 113.395 45.7952C112.858 46.3302 112.197 47.2847 111.927 47.9162C111.521 48.8647 111.239 49.1777 110.305 49.7159C107.285 51.4578 103.952 51.6634 99.8022 50.3639C97.9347 49.7791 95.2342 48.4661 93.2974 47.201C92.4474 46.6457 90.7698 45.3374 89.5698 44.2939C86.0404 41.2248 83.8158 39.0583 81.9368 37.8512C78.6437 35.7355 75.856 35.0628 72.479 34.4904C70.4613 34.1484 66.6516 34.1198 64.1165 34.4274Z" fill="url(#paint0_radial)"/>
<defs>
<radialGradient id="paint0_radial" cx="0" cy="0" r="1" gradientUnits="userSpaceOnUse" gradientTransform="translate(43.4227 132.866) rotate(-59.3493) scale(124.245 105.487)">
<stop offset="0.266812" stop-color="#FF302C"/>
<stop offset="1" stop-color="#FEBB4E"/>
</radialGradient>
</defs>
</svg>
