<svg width="439" height="517" viewBox="0 0 439 517" fill="none" xmlns="http://www.w3.org/2000/svg">
<path fill-rule="evenodd" clip-rule="evenodd" d="M272.733 1.17642C265.484 2.70023 255.598 7.38381 249.1 12.3729C238.554 20.4682 230.756 34.1134 228.768 47.9459C227.211 58.7834 229.348 70.1351 234.904 80.5403C237.077 84.6095 240.469 88.8582 245.302 93.5643C250.712 98.8303 254.119 101.32 259.161 103.69C262.838 105.417 268.238 107.42 271.16 108.139C277.981 109.817 292.044 109.817 298.866 108.139C301.788 107.42 307.187 105.417 310.864 103.69C315.906 101.32 319.314 98.8303 324.723 93.5643C335.377 83.1927 340.512 72.621 341.723 58.5745C342.393 50.7959 340.52 40.3527 337.122 32.9149C334.111 26.3235 327.844 18.0513 322.242 13.2702C316.257 8.1647 305.056 2.77875 297.047 1.15657C289.396 -0.392255 280.162 -0.385352 272.733 1.17642ZM187.138 106.144C172.482 107.924 155.353 113.382 143.721 119.982C134.73 125.082 123.801 133.526 117.461 140.27C111.248 146.878 102.548 159.024 98.5874 166.619C85.733 191.266 77.9321 229.091 82.8849 242.757C86.3749 252.39 95.4888 260.182 105.652 262.224C109.689 263.035 111.601 262.97 116.247 261.86C125.47 259.657 132.868 253.727 137.551 244.783C138.812 242.372 140.991 235.233 142.391 228.92C143.792 222.606 146.346 213.368 148.066 208.39C156.834 183.026 169.554 169.081 187.629 165.014L192.461 163.926L191.867 172.279C190.43 192.45 187.17 215.662 183.736 230.161C181.345 240.26 177.084 253.668 173.44 262.559C161.636 291.36 143.98 310.191 124.072 315.211C117.189 316.946 103.951 316.918 97.7522 315.155C80.7072 310.305 66.6609 297.195 57.3731 277.467C53.7183 269.705 48.7307 264.582 41.7847 261.456C37.5807 259.563 35.5001 259.191 29.1728 259.204C23.0291 259.216 20.862 259.591 17.7188 261.188C8.50679 265.866 1.3923 275.511 0.171047 284.974C-0.169479 287.615 0.0123693 291.609 0.592689 294.231C1.15518 296.768 3.55134 302.768 5.91898 307.566C16.0991 328.195 31.7062 346.137 49.8406 358.058C58.0631 363.462 72.6388 369.857 81.9124 372.129C102.905 377.272 122.187 377.267 142.384 372.115C151.36 369.826 166.166 363.425 173.305 358.747C181.21 353.568 191.842 344.353 197.786 337.53C205.449 328.735 212.504 318.468 218.033 308.065C220.476 303.467 223.639 298.631 225.062 297.316C233.581 289.448 245.07 294.956 252.734 310.581C268.257 342.228 276.742 400.723 275.94 470.552C275.663 494.683 275.721 495.718 277.579 499.609C280.307 505.323 286.15 511.103 292.018 513.893C296.442 515.996 298.067 516.283 305.516 516.283C312.972 516.283 314.588 515.997 319.031 513.884C324.842 511.122 329.911 506.089 332.429 500.581C335.367 494.15 336.07 481.748 335.548 445.529C335.036 409.979 333.786 392.295 329.978 366.688C325.102 333.899 317.686 307.216 307.7 286.53C305.503 281.982 302.885 275.708 301.88 272.589C299.561 265.388 298.771 254.007 300.043 246.125C301.047 239.909 303.965 229.924 305.408 227.77C306.065 226.788 307.167 226.899 311.9 228.424C320.691 231.255 329.875 232.763 342.064 233.376C366.863 234.623 389.943 229.206 407.066 218.119C425.294 206.318 438.339 187.447 438.339 172.879C438.339 164.533 435.677 158.561 429.07 152.089C424.97 148.072 422.313 146.29 418.281 144.852C407.417 140.977 394.535 143.892 386.306 152.088C384.134 154.251 381.464 158.109 380.371 160.661C378.729 164.495 377.589 165.76 373.818 167.935C361.611 174.975 348.141 175.806 331.367 170.554C323.819 168.19 312.905 162.884 305.077 157.77C301.641 155.526 294.861 150.238 290.011 146.021C275.746 133.616 267.201 126.861 259.607 121.982C246.297 113.432 234.585 108.712 220.936 106.398C212.781 105.016 197.384 104.9 187.138 106.144Z" fill="url(#paint0_radial)"/>
<defs>
<radialGradient id="paint0_radial" cx="0" cy="0" r="1" gradientUnits="userSpaceOnUse" gradientTransform="translate(351.696 82.4502) rotate(122.021) scale(390.397 331.458)">
<stop stop-color="#FF302C"/>
<stop offset="1" stop-color="#FEBB4E"/>
</radialGradient>
</defs>
</svg>
