<svg width="128" height="128" viewBox="0 0 128 128" fill="none" xmlns="http://www.w3.org/2000/svg">
<path fill-rule="evenodd" clip-rule="evenodd" d="M75.8176 7.51654C74.2232 7.85168 72.049 8.88174 70.6198 9.97899C68.3005 11.7594 66.5854 14.7604 66.1482 17.8026C65.8057 20.1861 66.2758 22.6827 67.4976 24.9711C67.9756 25.8661 68.7216 26.8005 69.7846 27.8355C70.9743 28.9937 71.7238 29.5414 72.8326 30.0625C73.6414 30.4424 74.8288 30.8828 75.4715 31.0409C76.9717 31.41 80.0646 31.41 81.5648 31.0409C82.2075 30.8828 83.395 30.4424 84.2037 30.0625C85.3126 29.5414 86.0621 28.9937 87.2517 27.8355C89.5948 25.5545 90.7242 23.2294 90.9905 20.1402C91.1379 18.4294 90.726 16.1326 89.9787 14.4968C89.3164 13.0472 87.9381 11.2279 86.7059 10.1764C85.3898 9.05349 82.9262 7.86895 81.1649 7.51218C79.4822 7.17154 77.4513 7.17306 75.8176 7.51654ZM56.9923 30.6022C53.769 30.9937 50.0019 32.1941 47.4438 33.6455C45.4664 34.7672 43.0626 36.6243 41.6683 38.1075C40.3018 39.561 38.3885 42.2322 37.5174 43.9025C34.6903 49.3233 32.9747 57.642 34.0639 60.6478C34.8315 62.7662 36.8359 64.48 39.0711 64.9292C39.9591 65.1075 40.3796 65.0931 41.4012 64.8491C43.4298 64.3646 45.0568 63.0603 46.0867 61.0932C46.3641 60.5629 46.8433 58.993 47.1513 57.6044C47.4593 56.2159 48.021 54.184 48.3993 53.0893C50.3277 47.511 53.1252 44.4439 57.1004 43.5496L58.1632 43.3103L58.0324 45.1474C57.7164 49.5837 56.9994 54.6886 56.2442 57.8775C55.7184 60.0986 54.7813 63.0474 53.9798 65.0028C51.3839 71.3371 47.5006 75.4786 43.1224 76.5825C41.6085 76.9641 38.6971 76.9581 37.3337 76.5702C33.585 75.5037 30.4958 72.6203 28.4531 68.2814C27.6493 66.5743 26.5524 65.4476 25.0247 64.7601C24.1001 64.3439 23.6426 64.2621 22.251 64.2648C20.8998 64.2674 20.4232 64.35 19.7319 64.7012C17.7059 65.7302 16.1412 67.8512 15.8726 69.9324C15.7977 70.5133 15.8377 71.3918 15.9653 71.9685C16.089 72.5264 16.616 73.846 17.1367 74.9012C19.3757 79.4382 22.8082 83.3842 26.7965 86.0059C28.6048 87.1944 31.8105 88.601 33.85 89.1006C38.4669 90.2317 42.7077 90.2307 47.1497 89.0976C49.1238 88.5942 52.38 87.1863 53.9502 86.1575C55.6886 85.0185 58.0271 82.9918 59.3344 81.4913C61.0197 79.557 62.5712 77.2989 63.7872 75.011C64.3245 73.9998 65.0201 72.9361 65.3332 72.6469C67.2067 70.9166 69.7334 72.1279 71.4191 75.5644C74.833 82.5246 76.6992 95.3894 76.5227 110.747C76.4618 116.054 76.4747 116.282 76.8833 117.138C77.4832 118.394 78.7683 119.665 80.0588 120.279C81.0318 120.741 81.3892 120.805 83.0274 120.805C84.6672 120.805 85.0226 120.742 85.9998 120.277C87.2778 119.669 88.3928 118.563 88.9464 117.351C89.5926 115.937 89.7473 113.209 89.6324 105.244C89.5199 97.4251 89.245 93.5357 88.4075 87.904C87.3351 80.6927 85.7041 74.8243 83.5077 70.2748C83.0247 69.2745 82.4488 67.8947 82.2279 67.2087C81.7178 65.6249 81.5441 63.1218 81.8238 61.3884C82.0446 60.0213 82.6865 57.8253 83.0037 57.3515C83.1482 57.1355 83.3907 57.16 84.4315 57.4953C86.365 58.118 88.3847 58.4497 91.0656 58.5846C96.5196 58.8588 101.596 57.6674 105.362 55.2291C109.37 52.6336 112.239 48.4832 112.239 45.2793C112.239 43.4437 111.654 42.1303 110.201 40.707C109.299 39.8234 108.715 39.4316 107.828 39.1152C105.439 38.2632 102.605 38.9042 100.796 40.7068C100.318 41.1824 99.7307 42.0308 99.4904 42.5922C99.1292 43.4353 98.8787 43.7135 98.0492 44.1919C95.3646 45.7403 92.4021 45.923 88.7129 44.7679C87.053 44.2481 84.6525 43.081 82.9309 41.9564C82.1753 41.4629 80.6842 40.3 79.6174 39.3724C76.4802 36.6442 74.5028 34.7185 72.8326 33.6455C69.9054 31.7649 67.4275 31.1669 64.4257 30.6582C62.6322 30.3541 59.2458 30.3287 56.9923 30.6022Z" fill="url(#paint0_radial)"/>
<defs>
<radialGradient id="paint0_radial" cx="0" cy="0" r="1" gradientUnits="userSpaceOnUse" gradientTransform="translate(38.5978 118.103) rotate(-59.3493) scale(110.44 93.7663)">
<stop offset="0.266812" stop-color="#FF302C"/>
<stop offset="1" stop-color="#FEBB4E"/>
</radialGradient>
</defs>
</svg>
