<svg width="72" height="72" viewBox="0 0 72 72" fill="none" xmlns="http://www.w3.org/2000/svg">
<path fill-rule="evenodd" clip-rule="evenodd" d="M42.6474 4.22806C41.7506 4.41657 40.5276 4.99598 39.7237 5.61318C38.4191 6.61467 37.4544 8.30273 37.2084 10.014C37.0158 11.3547 37.2802 12.759 37.9675 14.0463C38.2364 14.5497 38.656 15.0753 39.2539 15.6575C39.9231 16.3089 40.3447 16.617 40.9684 16.9101C41.4233 17.1238 42.0913 17.3716 42.4528 17.4605C43.2966 17.6681 45.0364 17.6681 45.8803 17.4605C46.2418 17.3716 46.9097 17.1238 47.3647 16.9101C47.9884 16.617 48.41 16.3089 49.0792 15.6575C50.3971 14.3744 51.0325 13.0666 51.1822 11.3289C51.2651 10.3665 51.0334 9.07461 50.6131 8.15447C50.2405 7.33904 49.4653 6.31567 48.7722 5.7242C48.0318 5.09259 46.6461 4.42628 45.6553 4.2256C44.7088 4.03399 43.5664 4.03485 42.6474 4.22806ZM32.0583 17.2137C30.2451 17.4339 28.1261 18.1092 26.6872 18.9256C25.5749 19.5566 24.2228 20.6012 23.4385 21.4355C22.6698 22.2531 21.5936 23.7556 21.1036 24.6952C19.5134 27.7443 18.5483 32.4236 19.161 34.1144C19.5928 35.306 20.7203 36.27 21.9776 36.5227C22.477 36.623 22.7136 36.6149 23.2883 36.4776C24.4293 36.2051 25.3445 35.4714 25.9238 34.3649C26.0799 34.0667 26.3494 33.1836 26.5226 32.4025C26.6959 31.6214 27.0119 30.4785 27.2247 29.8627C28.3094 26.7249 29.883 24.9997 32.119 24.4966L32.7168 24.362L32.6433 25.3954C32.4655 27.8908 32.0622 30.7624 31.6374 32.5561C31.3417 33.8055 30.8145 35.4642 30.3637 36.5641C28.9035 40.1271 26.7192 42.4567 24.2564 43.0777C23.4048 43.2923 21.7672 43.2889 21.0003 43.0707C18.8916 42.4708 17.1539 40.8489 16.0049 38.4083C15.5528 37.448 14.9358 36.8143 14.0765 36.4275C13.5564 36.1935 13.299 36.1474 12.5162 36.1489C11.7562 36.1504 11.4881 36.1969 11.0992 36.3944C9.95961 36.9732 9.07947 38.1663 8.92839 39.337C8.88626 39.6637 8.90876 40.1579 8.98055 40.4823C9.05014 40.7961 9.34657 41.5384 9.63947 42.1319C10.8989 44.684 12.8296 46.9036 15.0731 48.3783C16.0903 49.0469 17.8935 49.8381 19.0407 50.1191C21.6377 50.7553 24.0232 50.7548 26.5218 50.1174C27.6322 49.8342 29.4638 49.0423 30.347 48.4636C31.3249 47.8229 32.6403 46.6829 33.3757 45.8388C34.3236 44.7508 35.1964 43.4806 35.8803 42.1937C36.1826 41.6249 36.5739 41.0266 36.75 40.8639C37.8038 39.8906 39.2251 40.5719 40.1733 42.505C42.0936 46.4201 43.1434 53.6565 43.0441 62.2951C43.0098 65.2805 43.0171 65.4084 43.2469 65.8899C43.5844 66.5967 44.3073 67.3118 45.0331 67.6569C45.5804 67.9171 45.7815 67.9526 46.703 67.9526C47.6254 67.9526 47.8253 67.9172 48.3749 67.6559C49.0938 67.3141 49.721 66.6914 50.0324 66.0101C50.3959 65.2145 50.4829 63.6802 50.4183 59.1995C50.355 54.8016 50.2004 52.6139 49.7293 49.446C49.126 45.3897 48.2086 42.0887 46.9732 39.5296C46.7014 38.9669 46.3775 38.1908 46.2533 37.8049C45.9663 36.914 45.8686 35.506 46.026 34.531C46.1501 33.762 46.5112 32.5268 46.6896 32.2602C46.7709 32.1387 46.9073 32.1525 47.4928 32.3411C48.5804 32.6914 49.7165 32.8779 51.2244 32.9538C54.2923 33.1081 57.1476 32.4379 59.2659 31.0664C61.5209 29.6064 63.1347 27.2718 63.1347 25.4696C63.1347 24.4371 62.8054 23.6983 61.9881 22.8977C61.4808 22.4007 61.1522 22.1803 60.6534 22.0023C59.3093 21.523 57.7156 21.8836 56.6976 22.8976C56.429 23.1651 56.0986 23.6423 55.9634 23.9581C55.7603 24.4324 55.6193 24.5889 55.1527 24.858C53.6427 25.7289 51.9762 25.8317 49.9011 25.1819C48.9673 24.8896 47.6171 24.2331 46.6487 23.6005C46.2237 23.3229 45.3849 22.6687 44.7849 22.147C43.0202 20.6124 41.9079 19.5291 40.9684 18.9256C39.3218 17.8677 37.928 17.5314 36.2395 17.2452C35.2307 17.0742 33.3258 17.0599 32.0583 17.2137Z" fill="url(#paint0_radial)"/>
<defs>
<radialGradient id="paint0_radial" cx="0" cy="0" r="1" gradientUnits="userSpaceOnUse" gradientTransform="translate(21.7114 66.433) rotate(-59.3493) scale(62.1223 52.7435)">
<stop offset="0.266812" stop-color="#FF302C"/>
<stop offset="1" stop-color="#FEBB4E"/>
</radialGradient>
</defs>
</svg>
