<svg width="384" height="384" viewBox="0 0 384 384" fill="none" xmlns="http://www.w3.org/2000/svg">
<path fill-rule="evenodd" clip-rule="evenodd" d="M227.452 22.5496C222.669 23.555 216.146 26.6452 211.858 29.937C204.9 35.2782 199.755 44.2813 198.444 53.4078C197.416 60.5583 198.827 68.0481 202.492 74.9134C203.926 77.5983 206.164 80.4016 209.353 83.5066C212.922 86.9811 215.17 88.6241 218.497 90.1874C220.923 91.3272 224.486 92.6485 226.414 93.1227C230.914 94.23 240.193 94.23 244.694 93.1227C246.622 92.6485 250.184 91.3272 252.61 90.1874C255.937 88.6241 258.185 86.9811 261.754 83.5066C268.783 76.6635 272.172 69.6883 272.97 60.4206C273.413 55.2882 272.177 48.3979 269.935 43.4905C267.948 39.1415 263.813 33.6836 260.117 30.5291C256.169 27.1605 248.778 23.6068 243.494 22.5365C238.446 21.5146 232.353 21.5192 227.452 22.5496ZM170.976 91.8065C161.306 92.981 150.005 96.5824 142.33 100.937C136.398 104.302 129.187 109.873 125.004 114.323C120.904 118.683 115.164 126.697 112.551 131.708C104.07 147.97 98.923 172.926 102.191 181.943C104.493 188.299 110.507 193.44 117.212 194.787C119.876 195.323 121.138 195.279 124.203 194.547C130.288 193.094 135.17 189.181 138.259 183.279C139.091 181.689 140.529 176.979 141.453 172.813C142.377 168.648 144.062 162.552 145.197 159.268C150.982 142.533 159.375 133.332 171.3 130.649L174.489 129.931L174.096 135.442C173.148 148.751 170.997 164.066 168.732 173.633C167.154 180.296 164.343 189.142 161.938 195.008C154.151 214.011 142.501 226.436 129.366 229.748C124.824 230.892 116.09 230.874 112 229.711C100.754 226.511 91.4864 217.861 85.3583 204.844C82.9469 199.723 79.6561 196.343 75.0732 194.28C72.2994 193.032 70.9267 192.786 66.7519 192.794C62.6983 192.802 61.2685 193.05 59.1947 194.104C53.1166 197.191 48.4225 203.554 47.6168 209.797C47.3921 211.54 47.5121 214.175 47.895 215.905C48.2661 217.579 49.8471 221.538 51.4092 224.703C58.126 238.314 68.4235 250.153 80.3884 258.018C85.8136 261.583 95.4306 265.803 101.549 267.302C115.4 270.695 128.122 270.692 141.448 267.293C147.37 265.782 157.139 261.559 161.85 258.473C167.065 255.056 174.08 248.975 178.002 244.474C183.058 238.671 187.713 231.897 191.36 225.033C192.973 221.999 195.059 218.808 195.999 217.941C201.619 212.75 209.199 216.384 214.256 226.693C224.498 247.574 230.097 286.168 229.567 332.241C229.384 348.162 229.423 348.845 230.649 351.413C232.449 355.183 236.304 358.996 240.175 360.837C243.094 362.224 244.167 362.414 249.081 362.414C254.001 362.414 255.067 362.225 257.998 360.831C261.833 359.008 265.177 355.688 266.838 352.054C268.777 347.811 269.241 339.628 268.896 315.731C268.559 292.275 267.734 280.607 265.221 263.712C262.004 242.078 257.111 224.473 250.522 210.824C249.073 207.823 247.346 203.684 246.683 201.626C245.152 196.875 244.631 189.365 245.471 184.165C246.133 180.064 248.058 173.476 249.01 172.054C249.444 171.407 250.171 171.48 253.294 172.486C259.094 174.354 265.153 175.349 273.196 175.754C289.558 176.576 304.786 173.002 316.084 165.687C328.11 157.901 336.717 145.45 336.717 135.838C336.717 130.331 334.961 126.391 330.602 122.121C327.896 119.47 326.144 118.295 323.483 117.346C316.315 114.789 307.815 116.713 302.386 122.12C300.953 123.547 299.191 126.093 298.47 127.777C297.387 130.306 296.635 131.141 294.147 132.576C286.093 137.221 277.205 137.769 266.138 134.304C261.158 132.744 253.956 129.243 248.792 125.869C246.525 124.389 242.052 120.9 238.851 118.117C229.44 109.933 223.507 104.155 218.497 100.937C209.715 95.2947 202.281 93.5008 193.276 91.9745C187.896 91.0624 177.736 90.9861 170.976 91.8065Z" fill="url(#paint0_radial)"/>
<defs>
<radialGradient id="paint0_radial" cx="0" cy="0" r="1" gradientUnits="userSpaceOnUse" gradientTransform="translate(115.793 354.31) rotate(-59.3493) scale(331.319 281.299)">
<stop offset="0.266812" stop-color="#FF302C"/>
<stop offset="1" stop-color="#FEBB4E"/>
</radialGradient>
</defs>
</svg>
