<svg width="512" height="512" viewBox="0 0 512 512" fill="none" xmlns="http://www.w3.org/2000/svg">
<path fill-rule="evenodd" clip-rule="evenodd" d="M303.269 30.0662C296.892 31.4067 288.195 35.527 282.478 39.916C273.201 47.0376 266.341 59.0417 264.592 71.2104C263.222 80.7444 265.102 90.7309 269.99 99.8846C271.902 103.464 274.885 107.202 279.137 111.342C283.896 115.975 286.894 118.165 291.33 120.25C294.564 121.77 299.314 123.531 301.885 124.164C307.886 125.64 320.258 125.64 326.258 124.164C328.829 123.531 333.579 121.77 336.814 120.25C341.249 118.165 344.247 115.975 349.006 111.342C358.378 102.218 362.896 92.9178 363.961 80.5607C364.551 73.7177 362.903 64.5306 359.914 57.9873C357.265 52.1887 351.752 44.9114 346.823 40.7054C341.558 36.2139 331.704 31.4758 324.659 30.0487C317.928 28.6862 309.804 28.6922 303.269 30.0662ZM227.968 122.409C215.075 123.975 200.007 128.777 189.774 134.582C181.865 139.069 172.249 146.497 166.672 152.43C161.206 158.244 153.553 168.929 150.069 175.61C138.76 197.293 131.898 230.568 136.255 242.591C139.325 251.065 147.343 257.92 156.284 259.717C159.835 260.43 161.517 260.372 165.604 259.396C173.718 257.458 180.226 252.241 184.346 244.373C185.455 242.252 187.372 235.972 188.604 230.418C189.836 224.864 192.083 216.736 193.596 212.357C201.31 190.044 212.5 177.776 228.401 174.198L232.652 173.241L232.129 180.59C230.865 198.335 227.997 218.755 224.976 231.51C222.873 240.394 219.124 252.19 215.918 260.011C205.534 285.348 190.002 301.915 172.489 306.33C166.433 307.857 154.787 307.832 149.334 306.281C134.339 302.015 121.982 290.481 113.811 273.126C110.596 266.297 106.209 261.79 100.098 259.04C96.3996 257.376 94.5692 257.048 89.0029 257.059C83.5981 257.07 81.6917 257.4 78.9266 258.805C70.8225 262.921 64.5637 271.405 63.4893 279.73C63.1898 282.053 63.3497 285.567 63.8603 287.874C64.3551 290.106 66.4631 295.384 68.5459 299.605C77.5016 317.753 91.2316 333.537 107.185 344.024C114.418 348.778 127.241 354.404 135.399 356.403C153.867 360.927 170.83 360.923 188.598 356.39C196.494 354.377 209.519 348.745 215.8 344.63C222.753 340.074 232.107 331.967 237.337 325.965C244.078 318.228 250.284 309.196 255.148 300.044C257.297 295.999 260.08 291.744 261.332 290.588C268.826 283.666 278.933 288.511 285.675 302.258C299.331 330.098 306.796 381.558 306.09 442.987C305.846 464.217 305.898 465.127 307.532 468.55C309.932 473.577 315.072 478.662 320.234 481.116C324.126 482.966 325.556 483.219 332.109 483.219C338.668 483.219 340.09 482.967 343.998 481.108C349.11 478.678 353.57 474.25 355.785 469.405C358.37 463.747 358.988 452.837 358.529 420.974C358.079 389.7 356.979 374.143 353.629 351.616C349.339 322.771 342.815 299.297 334.03 281.099C332.098 277.098 329.794 271.579 328.911 268.835C326.87 262.499 326.175 252.487 327.294 245.554C328.177 240.085 330.745 231.301 332.014 229.406C332.592 228.542 333.562 228.64 337.725 229.981C345.459 232.472 353.538 233.799 364.261 234.338C386.077 235.435 406.381 230.67 421.445 220.916C437.481 210.535 448.956 193.933 448.956 181.117C448.956 173.775 446.615 168.521 440.803 162.828C437.195 159.294 434.858 157.726 431.311 156.461C421.753 153.053 410.421 155.617 403.182 162.827C401.271 164.73 398.922 168.123 397.96 170.369C396.516 173.741 395.514 174.854 392.196 176.768C381.458 182.961 369.607 183.692 354.851 179.072C348.211 176.992 338.609 172.324 331.723 167.826C328.7 165.851 322.736 161.2 318.469 157.489C305.92 146.577 298.01 138.874 291.33 134.582C279.621 127.06 269.709 124.668 257.702 122.633C250.528 121.417 236.982 121.315 227.968 122.409Z" fill="url(#paint0_radial)"/>
<defs>
<radialGradient id="paint0_radial" cx="0" cy="0" r="1" gradientUnits="userSpaceOnUse" gradientTransform="translate(154.39 472.413) rotate(-59.3493) scale(441.759 375.065)">
<stop offset="0.266812" stop-color="#FF302C"/>
<stop offset="1" stop-color="#FEBB4E"/>
</radialGradient>
</defs>
</svg>
