<svg width="48" height="48" viewBox="0 0 48 48" fill="none" xmlns="http://www.w3.org/2000/svg">
<path fill-rule="evenodd" clip-rule="evenodd" d="M28.4319 2.8187C27.8341 2.94438 27.0187 3.33065 26.4828 3.74212C25.613 4.40978 24.9699 5.53516 24.8059 6.67598C24.6775 7.56979 24.8538 8.50602 25.312 9.36418C25.4912 9.69979 25.771 10.0502 26.1696 10.4383C26.6157 10.8726 26.8968 11.078 27.3126 11.2734C27.6159 11.4159 28.0612 11.5811 28.3022 11.6403C28.8648 11.7788 30.0246 11.7788 30.5872 11.6403C30.8282 11.5811 31.2735 11.4159 31.5768 11.2734C31.9926 11.078 32.2737 10.8726 32.7198 10.4383C33.5984 9.58294 34.022 8.71104 34.1218 7.55257C34.1771 6.91103 34.0226 6.04974 33.7424 5.43631C33.494 4.89269 32.9772 4.21045 32.5151 3.81613C32.0216 3.39506 31.0977 2.95085 30.4372 2.81707C29.8062 2.68933 29.0446 2.6899 28.4319 2.8187ZM21.3725 11.4758C20.1638 11.6226 18.7511 12.0728 17.7918 12.6171C17.0503 13.0377 16.1488 13.7341 15.626 14.2903C15.1135 14.8354 14.396 15.8371 14.0694 16.4634C13.0092 18.4962 12.3659 21.6158 12.7743 22.7429C13.0622 23.5373 13.8138 24.18 14.652 24.3484C14.985 24.4153 15.1427 24.4099 15.5258 24.3184C16.2865 24.1367 16.8967 23.6476 17.2829 22.9099C17.3869 22.7111 17.5666 22.1224 17.6821 21.6017C17.7976 21.081 18.0082 20.319 18.1501 19.9085C18.8733 17.8166 19.9223 16.6665 21.413 16.3311L21.8116 16.2413L21.7625 16.9303C21.644 18.5939 21.3751 20.5082 21.0919 21.7041C20.8948 22.537 20.5433 23.6428 20.2428 24.376C19.2693 26.7514 17.8131 28.3045 16.1713 28.7184C15.6035 28.8616 14.5118 28.8593 14.0005 28.7138C12.5947 28.3139 11.4363 27.2326 10.6703 25.6055C10.3688 24.9654 9.95751 24.5429 9.38464 24.285C9.03792 24.129 8.86632 24.0983 8.34448 24.0993C7.83778 24.1003 7.65905 24.1312 7.39982 24.263C6.64007 24.6488 6.05331 25.4442 5.95258 26.2247C5.9245 26.4425 5.9395 26.7719 5.98736 26.9882C6.03375 27.1974 6.23137 27.6923 6.42664 28.0879C7.26624 29.7893 8.55342 31.2691 10.049 32.2522C10.7272 32.6979 11.9293 33.2254 12.6941 33.4127C14.4255 33.8369 16.0158 33.8365 17.6815 33.4116C18.4218 33.2228 19.6429 32.6948 20.2317 32.3091C20.8836 31.8819 21.7605 31.1219 22.2508 30.5592C22.8827 29.8339 23.4646 28.9871 23.9205 28.1291C24.1221 27.7499 24.3829 27.351 24.5003 27.2426C25.2029 26.5937 26.1504 27.0479 26.7825 28.3366C28.0627 30.9467 28.7626 35.771 28.6964 41.5301C28.6735 43.5203 28.6784 43.6056 28.8316 43.9266C29.0566 44.3978 29.5385 44.8745 30.0224 45.1046C30.3873 45.278 30.5213 45.3017 31.1356 45.3017C31.7506 45.3017 31.8839 45.2781 32.2503 45.1039C32.7296 44.876 33.1477 44.4609 33.3553 44.0067C33.5976 43.4763 33.6556 42.4535 33.6125 39.4663C33.5703 36.5344 33.4673 35.0759 33.1532 32.964C32.751 30.2598 32.1394 28.0591 31.3158 26.353C31.1346 25.9779 30.9187 25.4605 30.8358 25.2032C30.6445 24.6093 30.5794 23.6707 30.6843 23.0207C30.7671 22.508 31.0078 21.6845 31.1267 21.5068C31.1809 21.4258 31.2719 21.435 31.6622 21.5607C32.3872 21.7942 33.1446 21.9186 34.15 21.9692C36.1952 22.0721 38.0987 21.6253 39.511 20.7109C41.0143 19.7376 42.0901 18.1812 42.0901 16.9797C42.0901 16.2914 41.8706 15.7989 41.3257 15.2651C40.9875 14.9338 40.7684 14.7868 40.4359 14.6682C39.5398 14.3487 38.4774 14.5891 37.7987 15.2651C37.6197 15.4434 37.3994 15.7616 37.3093 15.9721C37.1738 16.2882 37.0799 16.3926 36.7688 16.572C35.7621 17.1526 34.6511 17.2211 33.2677 16.788C32.6452 16.593 31.745 16.1554 31.0995 15.7337C30.8161 15.5486 30.2569 15.1125 29.8569 14.7646C28.6804 13.7416 27.9389 13.0194 27.3126 12.6171C26.2149 11.9118 25.2857 11.6876 24.16 11.4968C23.4874 11.3828 22.2175 11.3733 21.3725 11.4758Z" fill="url(#paint0_radial)"/>
<defs>
<radialGradient id="paint0_radial" cx="0" cy="0" r="1" gradientUnits="userSpaceOnUse" gradientTransform="translate(14.4746 44.2887) rotate(-59.3493) scale(41.4149 35.1624)">
<stop offset="0.266812" stop-color="#FF302C"/>
<stop offset="1" stop-color="#FEBB4E"/>
</radialGradient>
</defs>
</svg>
