<svg width="192" height="192" viewBox="0 0 192 192" fill="none" xmlns="http://www.w3.org/2000/svg">
<path fill-rule="evenodd" clip-rule="evenodd" d="M113.726 11.2748C111.334 11.7775 108.073 13.3226 105.929 14.9685C102.45 17.6391 99.8776 22.1406 99.2218 26.7039C98.7081 30.2792 99.4133 34.0241 101.246 37.4567C101.963 38.7991 103.082 40.2008 104.676 41.7533C106.461 43.4905 107.585 44.312 109.248 45.0937C110.462 45.6636 112.243 46.3243 113.207 46.5614C115.457 47.115 120.096 47.115 122.347 46.5614C123.311 46.3243 125.092 45.6636 126.305 45.0937C127.968 44.312 129.093 43.4905 130.877 41.7533C134.392 38.3317 136.086 34.8442 136.485 30.2103C136.706 27.6441 136.089 24.199 134.967 21.7452C133.974 19.5708 131.907 16.8418 130.058 15.2645C128.084 13.5802 124.389 11.8034 121.747 11.2683C119.223 10.7573 116.176 10.7596 113.726 11.2748ZM85.488 45.9033C80.6531 46.4905 75.0023 48.2912 71.1652 50.4683C68.1991 52.1508 64.5934 54.9365 62.5019 57.1613C60.4522 59.3415 57.5822 63.3483 56.2756 65.8538C52.035 73.9849 49.4615 86.463 51.0954 90.9717C52.2467 94.1493 55.2534 96.72 58.6062 97.3937C59.9381 97.6613 60.5689 97.6397 62.1014 97.2736C65.1442 96.5469 67.5848 94.5905 69.1296 91.6397C69.5457 90.8444 70.2644 88.4895 70.7264 86.4067C71.1884 84.3239 72.031 81.2761 72.5985 79.6339C75.4911 71.2665 79.6873 66.6659 85.6501 65.3243L87.2443 64.9654L87.0481 67.7211C86.5741 74.3755 85.4986 82.033 84.3658 86.8163C83.5771 90.1479 82.1714 94.5711 80.9692 97.5042C77.0753 107.006 71.2505 113.218 64.6831 114.874C62.4122 115.446 58.0451 115.437 56.0001 114.855C50.377 113.256 45.7432 108.93 42.6792 102.422C41.4734 99.8614 39.8281 98.1714 37.5366 97.1401C36.1497 96.5159 35.4633 96.3932 33.376 96.3972C31.3492 96.4011 30.6343 96.525 29.5973 97.0519C26.5583 98.5953 24.2113 101.777 23.8084 104.899C23.696 105.77 23.756 107.088 23.9475 107.953C24.133 108.79 24.9235 110.769 25.7046 112.352C29.063 119.157 34.2117 125.076 40.1942 129.009C42.9068 130.792 47.7153 132.901 50.7746 133.651C57.6999 135.347 64.0611 135.346 70.7241 133.646C73.6852 132.891 78.5695 130.779 80.9248 129.236C83.5324 127.528 87.0402 124.488 89.0011 122.237C91.529 119.335 93.8564 115.948 95.6802 112.517C96.4863 111 97.5297 109.404 97.9993 108.97C100.81 106.375 104.6 108.192 107.128 113.347C112.249 123.787 115.048 143.084 114.784 166.12C114.692 174.081 114.712 174.423 115.324 175.706C116.224 177.591 118.152 179.498 120.088 180.418C121.547 181.112 122.083 181.207 124.541 181.207C127 181.207 127.533 181.112 128.999 180.416C130.916 179.504 132.589 177.844 133.419 176.027C134.388 173.905 134.62 169.814 134.448 157.865C134.279 146.138 133.867 140.304 132.611 131.856C131.002 121.039 128.556 112.236 125.261 105.412C124.536 103.912 123.673 101.842 123.341 100.813C122.576 98.4373 122.316 94.6827 122.735 92.0827C123.066 90.032 124.029 86.738 124.505 86.0272C124.722 85.7033 125.086 85.74 126.647 86.243C129.547 87.1769 132.577 87.6745 136.598 87.8769C144.779 88.2882 152.393 86.5012 158.042 82.8436C164.055 78.9504 168.358 72.7248 168.358 67.919C168.358 65.1655 167.48 63.1954 165.301 61.0605C163.948 59.7352 163.072 59.1473 161.742 58.6728C158.157 57.3947 153.908 58.3563 151.193 61.0602C150.477 61.7736 149.596 63.0463 149.235 63.8883C148.693 65.153 148.318 65.5703 147.073 66.2879C143.046 68.6104 138.603 68.8845 133.069 67.1518C130.579 66.3722 126.978 64.6215 124.396 62.9347C123.263 62.1943 121.026 60.4499 119.426 59.0585C114.72 54.9664 111.754 52.0777 109.248 50.4683C104.858 47.6473 101.141 46.7504 96.6381 45.9872C93.9478 45.5312 88.8682 45.4931 85.488 45.9033Z" fill="url(#paint0_radial)"/>
<defs>
<radialGradient id="paint0_radial" cx="0" cy="0" r="1" gradientUnits="userSpaceOnUse" gradientTransform="translate(57.8963 177.155) rotate(-59.3493) scale(165.659 140.649)">
<stop offset="0.266812" stop-color="#FF302C"/>
<stop offset="1" stop-color="#FEBB4E"/>
</radialGradient>
</defs>
</svg>
