<svg width="96" height="96" viewBox="0 0 96 96" fill="none" xmlns="http://www.w3.org/2000/svg">
<path fill-rule="evenodd" clip-rule="evenodd" d="M56.8629 5.63741C55.6672 5.88876 54.0365 6.66131 52.9646 7.48424C51.2251 8.81955 49.9388 11.0703 49.6109 13.352C49.354 15.1396 49.7066 17.012 50.623 18.7284C50.9815 19.3996 51.541 20.1004 52.3382 20.8766C53.2305 21.7453 53.7926 22.156 54.6242 22.5468C55.2308 22.8318 56.1214 23.1621 56.6034 23.2807C57.7285 23.5575 60.0482 23.5575 61.1734 23.2807C61.6554 23.1621 62.546 22.8318 63.1525 22.5468C63.9842 22.156 64.5463 21.7453 65.4386 20.8766C67.1958 19.1659 68.0429 17.4221 68.2426 15.1051C68.3532 13.8221 68.0443 12.0995 67.4837 10.8726C66.987 9.78539 65.9534 8.4209 65.0292 7.63226C64.0421 6.79011 62.1944 5.90171 60.8734 5.63413C59.6114 5.37866 58.0882 5.3798 56.8629 5.63741ZM42.744 22.9516C40.3265 23.2452 37.5012 24.1456 35.5826 25.2341C34.0995 26.0754 32.2967 27.4682 31.2509 28.5807C30.2261 29.6707 28.7911 31.6741 28.1378 32.9269C26.0175 36.9925 24.7308 43.2315 25.5477 45.4858C26.1234 47.0746 27.6267 48.36 29.3031 48.6969C29.9691 48.8307 30.2845 48.8198 31.0507 48.6368C32.5721 48.2734 33.7924 47.2952 34.5648 45.8199C34.7728 45.4222 35.1322 44.2447 35.3632 43.2033C35.5942 42.1619 36.0155 40.638 36.2993 39.8169C37.7455 35.6332 39.8437 33.333 42.825 32.6622L43.6221 32.4827L43.5241 33.8606C43.287 37.1877 42.7493 41.0165 42.1829 43.4081C41.7886 45.0739 41.0857 47.2856 40.4846 48.7521C38.5377 53.5028 35.6252 56.609 32.3415 57.4369C31.2061 57.7231 29.0226 57.7185 28 57.4276C25.1885 56.6278 22.8716 54.4652 21.3396 51.2111C20.7367 49.9307 19.914 49.0857 18.7683 48.5701C18.0749 48.2579 17.7317 48.1966 16.688 48.1986C15.6746 48.2006 15.3171 48.2625 14.7987 48.5259C13.2792 49.2976 12.1056 50.8884 11.9042 52.4493C11.848 52.885 11.878 53.5438 11.9737 53.9763C12.0665 54.3948 12.4618 55.3845 12.8523 56.1759C14.5315 59.5786 17.1059 62.5382 20.0971 64.5044C21.4534 65.3958 23.8576 66.4507 25.3873 66.8255C28.8499 67.6737 32.0306 67.673 35.362 66.8232C36.8426 66.4456 39.2848 65.3897 40.4624 64.6181C41.7662 63.7639 43.5201 62.2438 44.5006 61.1185C45.7645 59.6677 46.9282 57.9742 47.8401 56.2583C48.2432 55.4998 48.7649 54.7021 48.9997 54.4852C50.4048 53.1874 52.2998 54.0959 53.5641 56.6733C56.1245 61.8934 57.5242 71.542 57.3918 83.0601C57.3461 87.0406 57.3558 87.2113 57.6622 87.8532C58.1122 88.7956 59.076 89.7491 60.0438 90.2092C60.7736 90.5561 61.0416 90.6035 62.2703 90.6035C63.5001 90.6035 63.7667 90.5562 64.4996 90.2078C65.4581 89.7521 66.2943 88.9219 66.7096 88.0134C67.1942 86.9526 67.3102 84.907 67.2241 78.9327C67.1397 73.0688 66.9335 70.1518 66.3054 65.928C65.5011 60.5195 64.2778 56.1182 62.6306 52.7061C62.2682 51.9559 61.8364 50.921 61.6707 50.4065C61.2881 49.2186 61.1578 47.3413 61.3676 46.0413C61.5332 45.016 62.0146 43.369 62.2525 43.0136C62.3609 42.8516 62.5428 42.87 63.3234 43.1215C64.7735 43.5885 66.2883 43.8373 68.2989 43.9384C72.3894 44.1441 76.1964 43.2506 79.0209 41.4218C82.0276 39.4752 84.1792 36.3624 84.1792 33.9595C84.1792 32.5828 83.7402 31.5977 82.6505 30.5303C81.9741 29.8676 81.5359 29.5737 80.8708 29.3364C79.0787 28.6974 76.9538 29.1781 75.5965 30.5301C75.2383 30.8868 74.7978 31.5231 74.6175 31.9441C74.3467 32.5765 74.1588 32.7851 73.5366 33.1439C71.5232 34.3052 69.3013 34.4423 66.5345 33.5759C65.2895 33.1861 63.4891 32.3108 62.198 31.4673C61.6313 31.0971 60.5129 30.225 59.7128 29.5293C57.3599 27.4832 55.8769 26.0388 54.6242 25.2341C52.4288 23.8237 50.5704 23.3752 48.319 22.9936C46.9739 22.7656 44.4341 22.7465 42.744 22.9516Z" fill="url(#paint0_radial)"/>
<defs>
<radialGradient id="paint0_radial" cx="0" cy="0" r="1" gradientUnits="userSpaceOnUse" gradientTransform="translate(28.9481 88.5774) rotate(-59.3493) scale(82.8297 70.3247)">
<stop offset="0.266812" stop-color="#FF302C"/>
<stop offset="1" stop-color="#FEBB4E"/>
</radialGradient>
</defs>
</svg>
