<svg width="152" height="152" viewBox="0 0 152 152" fill="none" xmlns="http://www.w3.org/2000/svg">
<path fill-rule="evenodd" clip-rule="evenodd" d="M90.033 8.9259C88.1398 9.32387 85.5579 10.5471 83.8607 11.8501C81.1065 13.9643 79.0699 17.528 78.5507 21.1406C78.144 23.971 78.7023 26.9357 80.1531 29.6532C80.7207 30.716 81.6066 31.8256 82.8689 33.0547C84.2816 34.43 85.1717 35.0804 86.4885 35.6992C87.4488 36.1503 88.859 36.6734 89.6221 36.8611C91.4036 37.2994 95.0765 37.2994 96.8579 36.8611C97.6211 36.6734 99.0313 36.1503 99.9916 35.6992C101.308 35.0804 102.198 34.43 103.611 33.0547C106.393 30.346 107.735 27.585 108.051 23.9165C108.226 21.8849 107.737 19.1575 106.849 17.215C106.063 15.4935 104.426 13.3331 102.963 12.0844C101.4 10.751 98.4746 9.34437 96.383 8.92071C94.3848 8.51621 91.9731 8.51801 90.033 8.9259ZM67.6781 36.3401C63.8504 36.805 59.3769 38.2305 56.3392 39.954C53.991 41.2861 51.1365 43.4914 49.4807 45.2527C47.858 46.9787 45.586 50.1507 44.5516 52.1342C41.1945 58.5714 39.1571 68.4499 40.4506 72.0192C41.3621 74.5348 43.7424 76.57 46.3967 77.1034C47.4511 77.3152 47.9505 77.2981 49.1637 77.0083C51.5726 76.433 53.5047 74.8841 54.7277 72.5481C55.0571 71.9185 55.6261 70.0542 55.9918 68.4053C56.3576 66.7564 57.0246 64.3435 57.4739 63.0435C59.7639 56.4193 63.0859 52.7772 67.8064 51.7151L69.0685 51.4309L68.9132 53.6126C68.5379 58.8806 67.6865 64.9428 66.7897 68.7296C66.1653 71.3671 65.0524 74.8688 64.1007 77.1908C61.018 84.7128 56.4067 89.6309 51.2075 90.9417C49.4097 91.3949 45.9525 91.3877 44.3335 90.9271C39.8819 89.6606 36.2134 86.2366 33.7878 81.0842C32.8332 79.0569 31.5306 77.719 29.7166 76.9026C28.6186 76.4084 28.0752 76.3113 26.4227 76.3144C24.8182 76.3176 24.2522 76.4156 23.4313 76.8327C21.0254 78.0546 19.1673 80.5733 18.8484 83.0447C18.7594 83.7345 18.8069 84.7777 18.9585 85.4625C19.1054 86.1251 19.7312 87.6922 20.3496 88.9451C23.0083 94.3328 27.0844 99.0188 31.8205 102.132C33.968 103.543 37.7747 105.214 40.1966 105.807C45.6791 107.15 50.7151 107.149 55.99 105.803C58.3342 105.206 62.2009 103.534 64.0655 102.312C66.1299 100.959 68.9069 98.5527 70.4593 96.7709C72.4605 94.4739 74.303 91.7924 75.7469 89.0756C76.3851 87.8747 77.2111 86.6116 77.5829 86.2682C79.8077 84.2134 82.8082 85.6518 84.8099 89.7327C88.8639 97.9979 91.08 113.275 90.8705 131.512C90.7981 137.814 90.8134 138.084 91.2986 139.101C92.011 140.593 93.5371 142.103 95.0695 142.831C96.2249 143.38 96.6493 143.455 98.5947 143.455C100.542 143.455 100.964 143.381 102.124 142.829C103.642 142.107 104.966 140.793 105.624 139.355C106.391 137.675 106.575 134.436 106.438 124.977C106.305 115.692 105.978 111.074 104.984 104.386C103.71 95.8226 101.773 88.8539 99.1651 83.4513C98.5915 82.2635 97.9077 80.6249 97.6453 79.8103C97.0395 77.9295 96.8333 74.9571 97.1655 72.8988C97.4276 71.2753 98.1899 68.6676 98.5666 68.1049C98.7381 67.8484 99.0261 67.8775 100.262 68.2757C102.558 69.0151 104.957 69.409 108.14 69.5692C114.617 69.8948 120.644 68.4801 125.117 65.5846C129.877 62.5024 133.284 57.5738 133.284 53.7692C133.284 51.5894 132.589 50.0297 130.863 48.3396C129.792 47.2903 129.099 46.825 128.046 46.4493C125.208 45.4375 121.844 46.1987 119.695 48.3393C119.127 48.9041 118.43 49.9116 118.144 50.5782C117.716 51.5794 117.418 51.9098 116.433 52.4779C113.245 54.3166 109.727 54.5336 105.346 53.1619C103.375 52.5446 100.525 51.1587 98.4802 49.8233C97.5829 49.2371 95.8121 47.8562 94.5454 46.7547C90.8199 43.515 88.4718 41.2282 86.4885 39.954C83.0123 37.7208 80.0698 37.0107 76.5052 36.4066C74.3754 36.0455 70.3541 36.0153 67.6781 36.3401Z" fill="url(#paint0_radial)"/>
<defs>
<radialGradient id="paint0_radial" cx="0" cy="0" r="1" gradientUnits="userSpaceOnUse" gradientTransform="translate(45.8346 140.248) rotate(-59.3493) scale(131.147 111.347)">
<stop offset="0.266812" stop-color="#FF302C"/>
<stop offset="1" stop-color="#FEBB4E"/>
</radialGradient>
</defs>
</svg>
